<?xml version="1.0" encoding="UTF-8"?>
<svg version="1.1" xmlns="http://www.w3.org/2000/svg" width="467" height="442">
<path d="M0 0 C154.11 0 308.22 0 467 0 C467 145.86 467 291.72 467 442 C312.89 442 158.78 442 0 442 C0 296.14 0 150.28 0 0 Z " fill="#FEFEFE" transform="translate(0,0)"/>
<path d="M0 0 C28.65623202 -0.9548099 54.68273585 6.3085522 76.91503906 25.078125 C77.71554687 25.74457031 78.51605469 26.41101563 79.34082031 27.09765625 C97.75819235 42.99445482 112.8951875 67.21334515 114.79003906 91.96484375 C115.53856613 110.60784611 114.16935999 127.41886591 107.91503906 145.078125 C107.54507813 146.13 107.17511719 147.181875 106.79394531 148.265625 C97.3706198 172.78583533 78.15240051 191.5383041 54.91503906 203.078125 C50.63832912 204.93104345 46.31975311 206.55765717 41.91503906 208.078125 C40.67947266 208.52285156 40.67947266 208.52285156 39.41894531 208.9765625 C34.25818474 210.78327591 29.31827936 211.87740493 23.91503906 213.078125 C23.91503906 202.188125 23.91503906 191.298125 23.91503906 180.078125 C28.86503906 178.098125 28.86503906 178.098125 33.91503906 176.078125 C52.44771256 167.99146766 67.977126 156.32132939 75.85253906 136.93359375 C76.20316406 135.99128906 76.55378906 135.04898438 76.91503906 134.078125 C77.30691406 133.12550781 77.69878906 132.17289063 78.10253906 131.19140625 C84.58176665 112.9010867 82.44696015 90.99058508 74.53686523 73.57958984 C71.21336361 66.66454725 67.11890168 60.69514873 61.91503906 55.078125 C61.2846875 54.39363281 60.65433594 53.70914063 60.00488281 53.00390625 C44.96835946 38.25710397 25.16056909 33.765625 4.8190918 33.765625 C-14.98623602 34.04054713 -32.70778058 42.29278487 -46.96386719 55.8671875 C-56.17344953 65.55064097 -61.04780953 77.26054329 -64.08496094 90.078125 C-64.61802874 92.22187456 -65.15332972 94.36506961 -65.69042969 96.5078125 C-65.95364014 97.55952637 -66.21685059 98.61124023 -66.48803711 99.69482422 C-66.7835144 100.87455811 -66.7835144 100.87455811 -67.08496094 102.078125 C-71.32078421 102.12751128 -75.55645559 102.16383763 -79.79248047 102.18798828 C-81.23391641 102.19805463 -82.67533189 102.2117088 -84.11669922 102.22900391 C-86.18690027 102.25322512 -88.2568317 102.26460141 -90.32714844 102.2734375 C-92.19669189 102.28914795 -92.19669189 102.28914795 -94.10400391 102.30517578 C-97.08496094 102.078125 -97.08496094 102.078125 -99.08496094 100.078125 C-100.73014304 78.8173101 -87.38013826 53.19920805 -74.12402344 37.45703125 C-57.28113822 18.33381996 -31.14974473 1.88155345 -5.07714844 0.171875 C-3.38462671 0.1188456 -1.69216474 0.06340664 0 0 Z " fill="#029290" transform="translate(224.0849609375,124.921875)"/>
<path d="M0 0 C1.29615234 -0.00128906 2.59230469 -0.00257813 3.92773438 -0.00390625 C4.60650635 -0.00181152 5.28527832 0.0002832 5.98461914 0.00244141 C8.05427414 0.0077812 10.12371125 0.00250057 12.19335938 -0.00390625 C13.49080078 -0.00261719 14.78824219 -0.00132812 16.125 0 C17.92215454 0.00169189 17.92215454 0.00169189 19.75561523 0.00341797 C22.62890625 0.1328125 22.62890625 0.1328125 24.62890625 1.1328125 C25.57398434 3.49851752 26.4285714 5.85060907 27.25390625 8.2578125 C31.9465102 21.2381016 37.63216184 32.40336072 47.62890625 42.1328125 C48.21800781 42.75414062 48.80710938 43.37546875 49.4140625 44.015625 C61.20877093 55.5770315 79.26279529 60.70557103 95.14453125 62.73828125 C97.62890625 63.1328125 97.62890625 63.1328125 98.62890625 64.1328125 C98.74850152 66.5248986 98.80431777 68.88944782 98.81835938 71.28295898 C98.83079933 72.40489655 98.83079933 72.40489655 98.8434906 73.54949951 C98.86092871 75.17881051 98.87608513 76.80814711 98.88926697 78.43749809 C98.91023168 81.01317391 98.93725966 83.58872124 98.96594238 86.1643219 C99.02574288 91.63293646 99.07784271 97.1016103 99.12890625 102.5703125 C99.18806546 108.90159497 99.25033103 115.2328143 99.32078552 121.56398201 C99.34742293 124.10663472 99.36820102 126.64929351 99.38879395 129.19200134 C99.40539392 130.74576114 99.42226549 132.29951807 99.43945312 133.85327148 C99.44363754 134.56451675 99.44782196 135.27576202 99.45213318 136.00856018 C99.45237444 139.69469444 99.45237444 139.69469444 100.62890625 143.1328125 C102.31632935 143.15468628 102.31632935 143.15468628 104.0378418 143.17700195 C108.22208012 143.23509004 112.40578622 143.31232214 116.58959961 143.39526367 C118.39843083 143.42846364 120.20736443 143.45651091 122.01635742 143.47924805 C124.62072258 143.51288508 127.22415385 143.56520445 129.828125 143.62109375 C130.63352219 143.62748367 131.43891937 143.6338736 132.26872253 143.64045715 C136.87366909 143.76032793 139.857023 144.21752616 143.62890625 147.1328125 C149.82738341 154.06760984 156.62890625 164.69470525 156.62890625 174.1328125 C153.06612894 172.5063272 150.62312152 170.43427347 147.80078125 167.765625 C141.70609474 163.18364845 136.35971116 161.53374436 128.7890625 161.70703125 C127.98150009 161.71031937 127.17393768 161.71360748 126.34190369 161.71699524 C124.6519248 161.72734224 122.96197924 161.74716494 121.2722168 161.77612305 C118.67411974 161.82060849 116.07694828 161.83762827 113.47851562 161.84960938 C111.83201776 161.86301814 110.18553134 161.87793685 108.5390625 161.89453125 C107.75999039 161.90191818 106.98091827 161.90930511 106.17823792 161.91691589 C102.60634546 161.65620007 102.60634546 161.65620007 99.62890625 163.1328125 C99.47002533 165.42270031 99.37752552 167.71724691 99.3125 170.01171875 C99.2917189 170.6983812 99.27093781 171.38504364 99.24952698 172.09251404 C99.18396482 174.29334185 99.1251161 176.49429225 99.06640625 178.6953125 C99.02322733 180.18425764 98.97961325 181.67319023 98.93554688 183.16210938 C98.82827695 186.81887803 98.72702853 190.47578568 98.62890625 194.1328125 C95.20316688 194.90809729 92.0565138 195.25200028 88.546875 195.23046875 C87.70664795 195.22797119 86.8664209 195.22547363 86.00073242 195.22290039 C84.42449097 195.20924438 84.42449097 195.20924438 82.81640625 195.1953125 C77.77359375 195.164375 77.77359375 195.164375 72.62890625 195.1328125 C72.29890625 184.5728125 71.96890625 174.0128125 71.62890625 163.1328125 C69.26992187 163.07222656 66.9109375 163.01164063 64.48046875 162.94921875 C62.2001623 162.88744106 59.91990609 162.82404853 57.63964844 162.76049805 C56.05277968 162.71714009 54.46586401 162.67546563 52.87890625 162.63549805 C50.60011646 162.57781618 48.32156303 162.51411612 46.04296875 162.44921875 C45.3314566 162.43250626 44.61994446 162.41579376 43.88687134 162.39857483 C38.85664966 162.24668421 38.85664966 162.24668421 36.62890625 161.1328125 C36.60205946 158.48691236 36.58214268 155.84128154 36.56640625 153.1953125 C36.55802734 152.44056641 36.54964844 151.68582031 36.54101562 150.90820312 C36.53238184 148.98286937 36.57666292 147.05745669 36.62890625 145.1328125 C38.61510528 143.14661347 42.43648936 143.7400863 45.1640625 143.59765625 C45.83143433 143.55934692 46.49880615 143.5210376 47.18640137 143.48156738 C49.68778396 143.33936443 52.18962591 143.20533719 54.69140625 143.0703125 C60.28078125 142.7609375 65.87015625 142.4515625 71.62890625 142.1328125 C71.62890625 125.6328125 71.62890625 109.1328125 71.62890625 92.1328125 C67.66890625 90.4828125 63.70890625 88.8328125 59.62890625 87.1328125 C30.11568969 73.67544221 9.65801178 53.37564812 -2.06152344 22.91333008 C-4.63959686 15.84640266 -6.5190145 8.6204589 -7.37109375 1.1328125 C-5.51822742 -0.72005383 -2.47708926 0.0023342 0 0 Z " fill="#59C2C2" transform="translate(133.37109375,243.8671875)"/>
<path d="M0 0 C11.70400051 8.99899737 11.70400051 8.99899737 14.02734375 14.37890625 C13.99306274 17.66498598 12.79241257 18.95673945 10.53393555 21.24951172 C9.74369995 21.99225342 9.74369995 21.99225342 8.9375 22.75 C8.39456299 23.27223145 7.85162598 23.79446289 7.29223633 24.33251953 C-8.72842536 39.26018921 -28.27748136 46.67783193 -50.140625 46.19140625 C-55.25266835 45.93787374 -60.0274902 45.1721436 -65 44 C-66.58361328 43.67322266 -66.58361328 43.67322266 -68.19921875 43.33984375 C-77.78507288 41.22378669 -77.78507288 41.22378669 -81 37 C-81.4100178 34.10135241 -81.5850002 31.58928818 -81.56640625 28.69140625 C-81.57260483 27.88767075 -81.57880341 27.08393524 -81.58518982 26.25584412 C-81.59228199 24.55884002 -81.5891244 22.86176626 -81.57641602 21.16479492 C-81.56256176 18.57404882 -81.59660937 15.98692476 -81.63476562 13.39648438 C-81.63571701 11.74479079 -81.63385696 10.09309269 -81.62890625 8.44140625 C-81.64216446 7.67043106 -81.65542267 6.89945587 -81.66908264 6.1051178 C-81.6002147 2.10770577 -81.195791 0.24337994 -78.66064453 -2.90795898 C-73.60765806 -6.88107709 -67.83057435 -9.38785109 -62 -12 C-61.1853125 -12.36738281 -60.370625 -12.73476562 -59.53125 -13.11328125 C-39.0783739 -20.71109262 -16.77737128 -11.81406561 0 0 Z " fill="#EC4999" transform="translate(450,214)"/>
<path d="M0 0 C15.91398691 2.3160125 30.73153228 9.78455288 40.48828125 22.7578125 C50.93859176 38.19317266 55.55689588 55.81477865 54.7109375 74.39453125 C43.51711842 80.64875135 26.04985863 76.07355963 14.44140625 72.875 C4.01337671 69.74432103 -4.20206229 64.61411395 -12.2890625 57.39453125 C-13.04960937 56.72808594 -13.81015625 56.06164062 -14.59375 55.375 C-19.17738788 51.10063872 -22.84695215 46.47716225 -26.2890625 41.26953125 C-26.67521729 40.6957373 -27.06137207 40.12194336 -27.45922852 39.53076172 C-29.99603921 35.52164872 -31.27801856 32.15446956 -31.2890625 27.39453125 C-29.734375 24.91015625 -29.734375 24.91015625 -27.4140625 22.64453125 C-23.9386786 19.09888298 -20.69860569 15.52770636 -17.6015625 11.64453125 C-16.48007812 10.28134766 -16.48007812 10.28134766 -15.3359375 8.890625 C-14.11483254 7.40152945 -12.91033986 5.89817507 -11.7421875 4.3671875 C-8.2006955 0.13928273 -5.21914066 -0.33697154 0 0 Z " fill="#EC4999" transform="translate(354.2890625,307.60546875)"/>
<path d="M0 0 C4.70567374 0.81837804 6.85579406 3.96589072 9.875 7.5 C10.66390625 8.42296875 11.4528125 9.3459375 12.265625 10.296875 C17.02950255 16.081123 20.98461747 22.06317104 24.375 28.75 C24.70105225 29.38671631 25.02710449 30.02343262 25.36303711 30.67944336 C31.70792449 43.79940857 32.47357573 61.45723485 27.75 75.1875 C26.84476781 77.31505137 25.88774975 79.42147695 24.875 81.5 C24.38257813 82.551875 23.89015625 83.60375 23.3828125 84.6875 C20.82443033 89.7777526 19.16195744 93.01331359 13.875 95.5 C10.9372626 95.75239537 8.22304233 95.85087237 5.29296875 95.79296875 C4.47878983 95.78872391 3.6646109 95.78447906 2.82575989 95.78010559 C0.23766332 95.76337753 -2.34964071 95.72573712 -4.9375 95.6875 C-6.69725434 95.67244553 -8.45702095 95.65875846 -10.21679688 95.64648438 C-14.51983437 95.61349336 -18.82228303 95.5617524 -23.125 95.5 C-31.66243854 76.8284264 -33.85964861 54.40983994 -26.609375 34.87890625 C-22.2987361 25.06653086 -11.32968583 2.66580843 0 0 Z " fill="#EC4899" transform="translate(239.125,-0.5)"/>
<path d="M0 0 C0.95648438 0.37382812 1.91296875 0.74765625 2.8984375 1.1328125 C7.17042882 2.98115258 9.49812275 4.22437152 12.0625 8.1875 C14.24263078 17.05336517 14.1311481 26.0423281 14.0625 35.125 C14.05798828 36.27226562 14.05347656 37.41953125 14.04882812 38.6015625 C14.03716339 41.40109813 14.02079614 44.20051986 14 47 C-3.59921328 56.18219823 -24.28405202 59.75139324 -43.78125 54.55761719 C-54.82582004 51.07879676 -64.58016001 45.34426567 -73.75 38.375 C-74.35924316 37.9197998 -74.96848633 37.46459961 -75.59619141 36.99560547 C-78.07707747 35.03041321 -79.81900108 33.40007004 -81.1328125 30.49609375 C-80.76914781 23.66133674 -72.50291374 17.28271255 -67.75 12.8125 C-48.89903258 -3.18126504 -23.39762706 -10.08404772 0 0 Z " fill="#EC4999" transform="translate(81,204)"/>
<path d="M0 0 C2.0703125 2.27734375 2.0703125 2.27734375 4.125 4.9375 C6.64975365 8.14232197 9.16937616 11.23390937 11.9921875 14.1796875 C12.49218262 14.70312744 12.99217773 15.22656738 13.50732422 15.76586914 C14.48089616 16.77463235 15.46395157 17.77435329 16.45751953 18.76342773 C19.60822794 22.04754452 21.03545241 24.40891259 21 29 C17.19694639 37.76259136 10.68041495 45.2972051 4 52 C3.24074219 52.78246094 2.48148437 53.56492187 1.69921875 54.37109375 C-12.43063267 68.08468113 -31.01758102 73.17606892 -50.1875 73.1875 C-51.27998047 73.19974609 -52.37246094 73.21199219 -53.49804688 73.22460938 C-54.54412109 73.22654297 -55.59019531 73.22847656 -56.66796875 73.23046875 C-57.61953857 73.23457764 -58.5711084 73.23868652 -59.55151367 73.24291992 C-62 73 -62 73 -65 71 C-68.07674357 54.4625033 -61.15487011 34.58775459 -52 21 C-42.4310128 8.3155286 -16.39498307 -11.34275264 0 0 Z " fill="#EC4999" transform="translate(119,305)"/>
<path d="M0 0 C19.96858804 0.02953597 39.06794416 5.10057399 53.70825195 19.50317383 C61.91094551 28.17796485 65.79947348 36.70898913 68.83325195 48.19067383 C69.02274414 48.8996582 69.21223633 49.60864258 69.4074707 50.33911133 C70.38937897 54.60906105 70.98649464 58.25938728 68.69262695 62.10083008 C64.20921939 67.40039193 58.87473542 72.00697798 53.70043945 76.62426758 C52.01557908 78.13237829 50.34626359 79.65879364 48.71606445 81.22583008 C46.17212098 83.61713694 44.52322802 85.1109517 40.9934082 85.51879883 C29.33637434 84.30842696 17.43237438 72.47145195 10.08325195 64.00317383 C0.33537153 51.50007854 -6.28092812 35.375186 -6.29956055 19.38989258 C-6.30084961 18.33092773 -6.30213867 17.27196289 -6.3034668 16.1809082 C-6.29959961 15.09100586 -6.29573242 14.00110352 -6.29174805 12.87817383 C-6.29561523 11.76893555 -6.29948242 10.65969727 -6.3034668 9.5168457 C-6.30217773 8.46432617 -6.30088867 7.41180664 -6.29956055 6.32739258 C-6.29843262 5.36534912 -6.29730469 4.40330566 -6.29614258 3.41210938 C-6.04924572 -0.82659728 -3.70503625 0.04225241 0 0 Z " fill="#EC4999" transform="translate(85.166748046875,57.809326171875)"/>
<path d="M0 0 C2.06470799 2.06470799 1.2399182 6.29431751 1.25 9.125 C1.23936875 30.54696194 -5.58143981 49.69807697 -20.625 65.1875 C-27.97417305 72.47632724 -39.01002654 81.6268412 -49.3269043 83.39990234 C-53.17322205 82.82448281 -55.08668261 80.55547533 -57.66796875 77.85546875 C-58.18885574 77.32987869 -58.70974274 76.80428864 -59.24641418 76.26277161 C-60.905483 74.5823814 -62.54612122 72.88515463 -64.1875 71.1875 C-65.30293512 70.0555543 -66.41946045 68.9246818 -67.53710938 67.79492188 C-77.92347493 57.23617418 -77.92347493 57.23617418 -78.15234375 53.5390625 C-77.24591987 41.24465864 -73.30078688 31.13784101 -65 22 C-64.42765625 21.32453125 -63.8553125 20.6490625 -63.265625 19.953125 C-53.06858155 8.71023094 -35.67027961 0.83318889 -20.46948242 0.08081055 C-13.65115204 -0.1423103 -6.81803215 -0.24350115 0 0 Z " fill="#EC4999" transform="translate(395,66)"/>
</svg>
