<svg width="112" height="106" viewBox="0 0 112 106" fill="none" xmlns="http://www.w3.org/2000/svg">
<path d="M61.8561 21.7769C61.4261 22.4219 60.8241 22.7372 60.0644 22.7372L52.5391 22.7658C52.0087 22.7658 51.6648 22.5221 51.4785 22.0206C48.4253 13.6352 50.2028 6.39662 56.7962 0.304723C57.2407 -0.110959 57.6708 -0.0966987 58.115 0.318984C64.3215 6.22455 67.131 13.9362 61.8561 21.7769Z" fill="#EC4899"/>
<path d="M29.5042 34.1749C21.7066 30.276 18.2376 23.3098 19.0548 14.5518C19.0977 14.1362 19.4417 13.8208 19.8573 13.8208C28.5724 13.8351 36.2123 18.0636 37.1441 27.4952C37.2014 28.0687 36.972 28.642 36.5419 29.029L31.1382 33.9456C30.6939 34.347 30.0488 34.4472 29.5042 34.1749Z" fill="#EC4899"/>
<path d="M76.145 28.5563C76.661 19.6693 85.5337 15.4121 94.1196 15.8278C94.6787 15.8565 94.9797 16.1575 94.994 16.7165C95.2376 25.6178 91.3388 31.9391 83.2975 35.6802C82.8675 35.881 82.3659 35.7806 82.0505 35.4508L76.6465 29.8893C76.2882 29.5166 76.1163 29.0723 76.145 28.5563Z" fill="#EC4899"/>
<path d="M36.9002 54.4577L30.9804 54.4721C30.4213 54.4863 29.9913 53.9848 30.0772 53.4401C31.5681 43.1626 36.6851 36.0818 45.4146 32.183C63.9626 23.9122 85.1051 40.2529 80.7047 60.564C78.3826 71.2858 71.4306 78.0942 59.8345 80.9755C59.6911 81.0184 59.5478 80.9037 59.5478 80.7462L59.5622 73.6079C59.5622 73.2925 59.7197 73.0919 60.0207 72.9915C69.6245 70.2393 75.2863 61.3524 73.0932 51.548C68.7502 32.1257 39.896 33.6735 37.9035 53.5403C37.8462 54.1567 37.5166 54.4577 36.9002 54.4577Z" fill="#009290"/>
<path d="M22.2798 51.3471C22.7385 53.9129 22.8676 56.6793 22.8818 59.3311C22.8962 59.9044 22.6381 60.3058 22.1079 60.5206C14.0952 63.9609 6.84228 62.6995 0.334671 56.7222C-0.0666925 56.3639 -0.109696 55.9625 0.219987 55.5183C5.32291 48.6953 13.1492 45.4989 21.2478 49.9137C21.8356 50.2291 22.1794 50.7021 22.2798 51.3471Z" fill="#EC4899"/>
<path d="M89.4478 60.9644C88.9032 60.7925 88.5307 60.2765 88.5449 59.7031L88.6309 51.8195C88.6309 51.3178 88.8316 50.9308 89.2328 50.644C96.8156 45.2403 105.316 47.9205 110.949 54.3851C111.307 54.801 111.307 55.2166 110.934 55.618C105.072 62.0108 97.905 63.7881 89.4478 60.9644Z" fill="#EC4899"/>
<path d="M55.6479 98.2474L55.605 104.769C55.605 105.042 55.3469 105.257 55.0745 105.199C53.3544 104.898 51.6058 104.927 49.8427 105.271C49.5704 105.328 49.4269 105.214 49.4269 104.941L49.384 98.0037C49.384 97.4733 49.1117 97.2009 48.5813 97.2009L41.3856 97.1867C40.97 97.1723 40.7694 96.9717 40.7836 96.5559L40.8267 93.5889C40.8267 93.2877 40.97 93.1444 41.271 93.1302L48.5095 92.9007C49.1117 92.8865 49.4127 92.5711 49.4127 91.9691L49.384 81.1183C49.3696 80.5592 49.1117 80.2009 48.5813 80.029C38.5332 76.7752 32.4413 69.7515 30.3056 58.9294C30.2625 58.743 30.4202 58.5569 30.621 58.5711L37.5012 58.7001C37.7162 58.7146 37.8595 58.8148 37.9168 59.0298C40.2821 67.8881 45.9439 72.7474 54.9026 73.593C55.39 73.6359 55.6336 73.9084 55.6336 74.3958V91.8831C55.6336 92.6428 56.0206 93.0298 56.7803 93.0298L64.621 93.0584C65.2085 93.0729 65.6959 93.2879 66.0973 93.7035C67.6024 95.3233 68.7348 97.3013 69.4801 99.609C69.7382 100.412 69.5805 100.512 68.9927 99.8958C67.7457 98.577 65.9253 97.158 64.0046 97.1867C61.6394 97.2153 59.2315 97.2009 56.7658 97.1578C56.0348 97.1436 55.6623 97.5163 55.6479 98.2474Z" fill="#58C2C2"/>
<path d="M12.8915 88.9747C13.6512 79.2132 18.066 73.7377 26.1504 72.5624C27.0391 72.4334 27.9421 72.763 28.5441 73.451L33.1597 78.7403C33.5324 79.1703 33.604 79.7865 33.3316 80.2883C29.3324 87.7419 22.9968 91.1964 14.3393 90.6373C13.2929 90.5656 12.82 90.0211 12.8915 88.9747Z" fill="#EC4899"/>
<path d="M77.7802 80.1446L82.711 74.5256C83.0406 74.1387 83.4707 73.9523 83.9723 73.9667C93.3897 74.2104 97.7903 82.0796 98.0912 90.9381C98.1055 91.5256 97.8331 91.841 97.2456 91.8983C88.3156 92.7153 81.765 89.2896 77.6225 81.6497C77.3215 81.1193 77.3788 80.6175 77.7802 80.1446Z" fill="#EC4899"/>
</svg>
