<?xml version="1.0" encoding="UTF-8"?>
<svg version="1.1" xmlns="http://www.w3.org/2000/svg" width="1200" height="630">
<path d="M0 0 C396 0 792 0 1200 0 C1200 207.9 1200 415.8 1200 630 C804 630 408 630 0 630 C0 422.1 0 214.2 0 0 Z " fill="#FEFEFE" transform="translate(0,0)"/>
<path d="M0 0 C5.41060629 4.44199628 10.54728078 9.13195392 15.58984375 13.984375 C16.26917969 14.60054687 16.94851563 15.21671875 17.6484375 15.8515625 C29.35293939 26.80172019 38.46999581 40.7163977 45.58984375 54.984375 C45.91178711 55.62697266 46.23373047 56.26957031 46.56542969 56.93164062 C54.92367501 73.95611164 58.41032615 90.56733288 58.0769043 109.50244141 C58.02701424 112.3783699 58.01537297 115.252581 58.00976562 118.12890625 C57.95042714 127.93272025 57.42256597 137.33007522 55.58984375 146.984375 C55.3741272 148.47384644 55.3741272 148.47384644 55.15405273 149.9934082 C54.06469241 157.47965703 52.09308109 164.41588553 49.58984375 171.546875 C49.19539063 172.67367676 48.8009375 173.80047852 48.39453125 174.96142578 C41.26849403 194.70088502 30.99622695 210.74355052 16.58984375 225.984375 C15.84347656 226.79519531 15.09710937 227.60601562 14.328125 228.44140625 C7.45535688 235.65497279 -0.17754035 241.43411558 -8.41015625 246.984375 C-9.03180664 247.4071875 -9.65345703 247.83 -10.29394531 248.265625 C-19.54924788 254.43904203 -29.39662755 258.85461841 -39.72265625 262.921875 C-40.89078857 263.38271484 -42.0589209 263.84355469 -43.26245117 264.31835938 C-52.54689321 267.86780978 -61.40486717 270.984375 -71.41015625 270.984375 C-71.41015625 255.474375 -71.41015625 239.964375 -71.41015625 223.984375 C-64.48015625 221.014375 -57.55015625 218.044375 -50.41015625 214.984375 C-20.92794599 200.357542 -4.78698565 181.25969117 6.4765625 150.734375 C12.36524841 130.8988014 11.60793211 107.71724864 5.58984375 87.984375 C5.38085449 87.29102051 5.17186523 86.59766602 4.95654297 85.88330078 C-2.60084394 61.73928942 -18.74203966 40.95236949 -41.171875 29.09375 C-53.52117483 22.82162792 -65.7211137 19.75746599 -79.41015625 17.984375 C-80.07265381 17.88938721 -80.73515137 17.79439941 -81.41772461 17.6965332 C-109.30445979 13.8447742 -136.31606974 20.78460187 -159.22265625 36.921875 C-180.1009476 52.85123803 -190.91038926 72.05482782 -196.75634766 97.35400391 C-198.14485453 102.94017758 -199.80036944 108.45870423 -201.41015625 113.984375 C-207.479058 114.05846477 -213.54769722 114.11294859 -219.61694336 114.14916992 C-221.68209416 114.16426771 -223.74721285 114.18474774 -225.81225586 114.21069336 C-228.77856364 114.24703295 -231.74444796 114.2640913 -234.7109375 114.27734375 C-236.09857048 114.30056953 -236.09857048 114.30056953 -237.51423645 114.32426453 C-238.37490219 114.32449112 -239.23556793 114.32471771 -240.12231445 114.32495117 C-240.879543 114.33161301 -241.63677155 114.33827484 -242.41694641 114.34513855 C-244.98210215 113.88085492 -245.85648417 113.04760732 -247.41015625 110.984375 C-251.06912899 83.00399521 -235.22866044 51.68935462 -218.8203125 30.06640625 C-218.02496094 29.04933594 -217.22960937 28.03226563 -216.41015625 26.984375 C-215.23259766 25.47423828 -215.23259766 25.47423828 -214.03125 23.93359375 C-206.66959475 14.72841061 -198.67490673 7.25883361 -189.41015625 -0.015625 C-188.6222168 -0.65008545 -188.6222168 -0.65008545 -187.81835938 -1.29736328 C-134.22143165 -44.23544896 -53.59120039 -42.68472676 0 0 Z " fill="#039290" transform="translate(692.41015625,210.015625)"/>
<path d="M0 0 C6.22964615 -0.02529951 12.45927912 -0.04284549 18.68896484 -0.05493164 C20.80941259 -0.05996872 22.92985685 -0.06679859 25.05029297 -0.07543945 C28.09343322 -0.08753234 31.13652766 -0.09323447 34.1796875 -0.09765625 C35.13181122 -0.10281754 36.08393494 -0.10797882 37.06491089 -0.11329651 C37.94567291 -0.11337204 38.82643494 -0.11344757 39.73388672 -0.11352539 C40.89970779 -0.11685631 40.89970779 -0.11685631 42.08908081 -0.12025452 C44 0 44 0 46 1 C47.01806641 3.26220703 47.01806641 3.26220703 48.1015625 6.2578125 C48.70665649 7.8979834 48.70665649 7.8979834 49.32397461 9.57128906 C49.75331299 10.74401367 50.18265137 11.91673828 50.625 13.125 C60.82397874 40.17310978 75.96010802 64.22572639 103.0078125 76.94140625 C116.79580216 83.06976289 131.41587419 86.95081045 146.41015625 88.54296875 C149 89 149 89 151 91 C151.31091309 93.12986755 151.31091309 93.12986755 151.39648438 95.84155273 C151.43261841 96.88062271 151.46875244 97.91969269 151.50598145 98.99024963 C151.53494507 100.14717819 151.56390869 101.30410675 151.59375 102.49609375 C151.63077026 103.72202744 151.66779053 104.94796112 151.70593262 106.21104431 C152.23882018 125.4274557 152.34810189 144.65537004 152.52606201 163.87756348 C152.57700356 169.37806331 152.63164061 174.87849811 152.69187927 180.37890434 C152.71829541 182.92877648 152.73915875 185.47865599 152.7598877 188.02857971 C152.77647226 189.57512737 152.79334243 191.121672 152.81054688 192.66821289 C152.81473129 193.37084763 152.81891571 194.07348236 152.82322693 194.79740906 C152.8621268 197.80549381 153.0404697 200.12140911 154 203 C154.6233876 203.00586624 155.24677521 203.01173248 155.88905334 203.01777649 C162.39467345 203.08185723 168.89980559 203.16631486 175.4050293 203.26245117 C177.83074498 203.29564466 180.25653686 203.32369384 182.68237305 203.34643555 C186.17529684 203.38008331 189.66752585 203.43240631 193.16015625 203.48828125 C194.23959 203.49467117 195.31902374 203.5010611 196.4311676 203.50764465 C204.7024603 203.66807437 210.86194044 205.21618693 217.109375 210.88671875 C224.6352207 219.29887272 233.23154119 232.21336907 233.3125 243.75 C233.209375 244.8225 233.10625 245.895 233 247 C229.08327839 245.65297934 226.52678154 243.92133121 223.4375 241.1875 C216.08764574 235.12690054 206.92042506 230.879994 197.27905273 230.87060547 C196.34806259 230.86745331 195.41707245 230.86430115 194.45787048 230.86105347 C193.45985916 230.8630777 192.46184784 230.86510193 191.43359375 230.8671875 C190.40315445 230.86623077 189.37271515 230.86527405 188.31105042 230.86428833 C186.13485656 230.86360838 183.95866066 230.8654498 181.7824707 230.86962891 C178.44673119 230.87498518 175.11112598 230.86967485 171.77539062 230.86328125 C169.66145804 230.86394196 167.54752553 230.86522297 165.43359375 230.8671875 C163.93354042 230.86415115 163.93354042 230.86415115 162.40318298 230.86105347 C161.475345 230.86420563 160.54750702 230.86735779 159.59155273 230.87060547 C158.36721779 230.87179886 158.36721779 230.87179886 157.1181488 230.87301636 C154.80940832 230.91970328 154.80940832 230.91970328 152 232 C152.01160156 232.91394531 152.02320313 233.82789063 152.03515625 234.76953125 C152.14791254 248.5275603 151.5712112 262.25599006 151 276 C146.31487859 277.8322058 142.43047298 278.23544378 137.4140625 278.1953125 C136.12967285 278.19031738 134.8452832 278.18532227 133.52197266 278.18017578 C131.90597168 278.16196777 130.2899707 278.14375977 128.625 278.125 C123.46875 278.08375 118.3125 278.0425 113 278 C113 262.82 113 247.64 113 232 C108.7925 232.020625 104.585 232.04125 100.25 232.0625 C91.30615433 232.07453044 82.37350673 232.02221208 73.4375 231.625 C72.20918457 231.5787146 72.20918457 231.5787146 70.95605469 231.53149414 C67.17708891 231.33621239 65.21337883 231.14225255 62 229 C61.65942383 226.66162109 61.65942383 226.66162109 61.70703125 223.7734375 C61.7215332 222.2265625 61.7215332 222.2265625 61.73632812 220.6484375 C61.76146484 219.56820312 61.78660156 218.48796875 61.8125 217.375 C61.82603516 216.28703125 61.83957031 215.1990625 61.85351562 214.078125 C61.88895246 211.38492591 61.93835669 208.69270626 62 206 C65.74934757 203.60786031 69.59949759 203.56327992 73.9140625 203.3671875 C74.68374359 203.32562531 75.45342468 203.28406311 76.24642944 203.24124146 C77.87517229 203.15489603 79.50414466 203.0727898 81.13330078 202.99462891 C83.59592275 202.87639603 86.05765588 202.74607541 88.51953125 202.61328125 C90.10933788 202.53053375 91.69918086 202.44848111 93.2890625 202.3671875 C94.01235748 202.32971405 94.73565247 202.2922406 95.48086548 202.25363159 C101.00646915 201.99116719 106.45032188 202 112 202 C111.67 178.57 111.34 155.14 111 131 C103.41 127.7 95.82 124.4 88 121 C48.66528949 100.32774338 17.70891262 67.98207942 4 25 C1.66485399 16.65105332 -0.11122188 8.69362539 0 0 Z " fill="#5AC2C2" transform="translate(447,348)"/>
<path d="M0 0 C15.25700537 5.15686781 27.310726 29.51635689 34.328125 42.84765625 C43.16418288 61.19561779 45.50818465 85.01746743 38.98828125 104.55078125 C37.7567977 107.65229538 36.38590676 110.64624915 34.953125 113.66015625 C34.65599609 114.31516113 34.35886719 114.97016602 34.05273438 115.64501953 C26.4402046 132.41661645 26.4402046 132.41661645 17.953125 136.66015625 C16.25768909 136.75066694 14.55868522 136.77770497 12.86083984 136.77368164 C11.26941666 136.77356834 11.26941666 136.77356834 9.64584351 136.77345276 C7.92236191 136.76571083 7.92236191 136.76571083 6.1640625 136.7578125 C4.99050201 136.75639755 3.81694153 136.7549826 2.6078186 136.75352478 C-1.15210485 136.74791314 -4.91196945 136.73535863 -8.671875 136.72265625 C-11.21614498 136.71764275 -13.76041588 136.71307958 -16.3046875 136.70898438 C-22.55210353 136.69793993 -28.79948506 136.68119043 -35.046875 136.66015625 C-36.01314738 134.27841928 -36.97620854 131.89546551 -37.9375 129.51171875 C-38.20900879 128.84342041 -38.48051758 128.17512207 -38.76025391 127.48657227 C-48.95285161 102.15998071 -49.84431964 72.25889812 -39.41235352 46.94775391 C-18.23043132 -1.97376717 -18.23043132 -1.97376717 0 0 Z " fill="#EC4999" transform="translate(610.046875,-0.66015625)"/>
<path d="M0 0 C11.83092997 9.44591491 11.83092997 9.44591491 13.8828125 15.6015625 C13.8828125 20.64764493 11.95010155 23.28272512 8.66015625 26.828125 C-14.53735359 49.9746513 -44.87908792 62.11545609 -77.56347656 62.16821289 C-85.54979732 61.93422156 -93.2494933 60.48894883 -101.0546875 58.8515625 C-102.25786621 58.59963135 -103.46104492 58.3477002 -104.70068359 58.08813477 C-117.77579322 55.11365392 -117.77579322 55.11365392 -122.1171875 48.6015625 C-123.5660928 43.71621793 -123.31562025 38.56782859 -123.35546875 33.515625 C-123.3635405 32.54047943 -123.37161224 31.56533386 -123.37992859 30.56063843 C-123.39373108 28.50138101 -123.4044703 26.44210108 -123.41235352 24.3828125 C-123.42389022 22.28215814 -123.44436852 20.18153347 -123.47387695 18.08105469 C-123.51660281 15.03820979 -123.53272772 11.99623281 -123.54296875 8.953125 C-123.56923088 7.5543663 -123.56923088 7.5543663 -123.59602356 6.12734985 C-123.57317766 -0.7779302 -122.2277124 -5.24903104 -117.2421875 -10.296875 C-77.67386601 -37.79103956 -36.47239013 -28.06271622 0 0 Z " fill="#EC4A99" transform="translate(915.1171875,309.3984375)"/>
<path d="M0 0 C7.48660845 5.61148389 13.05213633 13.70099618 18.8671875 20.94140625 C21.11300232 23.58699963 23.48364224 25.98253869 25.98046875 28.390625 C29.98652897 32.31978005 32.78772818 35.56388337 33.39453125 41.3203125 C33.0354025 45.3677906 31.52552092 48.14192861 29.41796875 51.515625 C29.02222656 52.16096191 28.62648438 52.80629883 28.21875 53.47119141 C23.31868981 61.18542489 17.30371993 67.89563544 11.10546875 74.578125 C10.32171875 75.444375 9.53796875 76.310625 8.73046875 77.203125 C-10.67861603 97.75392065 -37.45535146 105.85963476 -64.94921875 106.8671875 C-67.49333965 106.92385416 -70.03763158 106.97328593 -72.58203125 107.015625 C-73.81284424 107.05018799 -75.04365723 107.08475098 -76.31176758 107.12036133 C-84.88304961 107.1600569 -84.88304961 107.1600569 -89.1875 104.68359375 C-91.63747196 100.22655094 -91.64377358 96.46913865 -91.51953125 91.453125 C-91.5047876 90.47899658 -91.49004395 89.50486816 -91.47485352 88.5012207 C-91.14955535 78.71125722 -89.09686352 69.79956341 -85.89453125 60.578125 C-85.63752441 59.83691406 -85.38051758 59.09570312 -85.11572266 58.33203125 C-77.71473614 37.65106708 -64.99696595 20.01485775 -45.89453125 8.578125 C-45.03601563 8.05992187 -44.1775 7.54171875 -43.29296875 7.0078125 C-30.54291122 -0.30418015 -14.33448485 -7.63788686 0 0 Z " fill="#EC4999" transform="translate(433.89453125,432.421875)"/>
<path d="M0 0 C0.82959229 0.22776123 1.65918457 0.45552246 2.51391602 0.69018555 C24.83851923 6.99076672 42.18011298 19.5141111 53.79052734 39.73339844 C58.82834027 48.82165783 62.18508669 57.71612948 64.6875 67.8125 C65.03039062 68.91464844 65.37328125 70.01679688 65.7265625 71.15234375 C67.7866649 78.99915655 67.82302111 86.80335859 67.75 94.875 C67.74548828 95.83599609 67.74097656 96.79699219 67.73632812 97.78710938 C67.72467706 100.12897422 67.70832025 102.47070181 67.6875 104.8125 C45.54215642 113.59427418 21.04792225 107.40316075 -0.3125 98.8125 C-10.02324937 94.47410813 -18.15124539 88.51410463 -26.3125 81.8125 C-27.11429688 81.17699219 -27.91609375 80.54148437 -28.7421875 79.88671875 C-40.39172629 70.20640805 -52.33182016 55.30044305 -54.9375 40.1875 C-54.84351799 33.83196662 -49.51984307 30.01359145 -45.3125 25.8125 C-43.65485162 24.05272163 -42.00907688 22.28168763 -40.375 20.5 C-39.54484375 19.59507812 -38.7146875 18.69015625 -37.859375 17.7578125 C-34.24873492 13.58231768 -31.0361628 9.15249061 -27.83203125 4.66015625 C-19.80421432 -4.41314381 -10.83235161 -3.03181143 0 0 Z " fill="#EC4999" transform="translate(782.3125,440.1875)"/>
<path d="M0 0 C1.70542969 0.09087891 1.70542969 0.09087891 3.4453125 0.18359375 C14.89954167 1.37002925 31.72538052 6.46569398 40 15 C46.99009031 26.72568678 45.26271233 43.27701805 45.125 56.5 C45.1149338 58.20963008 45.10581449 59.919266 45.09765625 61.62890625 C45.07596845 65.75275289 45.04164698 69.87630864 45 74 C42.45646702 75.12149252 39.91208613 76.24098906 37.3671875 77.359375 C36.29633911 77.83189697 36.29633911 77.83189697 35.20385742 78.31396484 C11.41912983 88.75471059 -18.23575197 93.08168939 -43.08203125 83.48828125 C-47.13553098 81.82032479 -51.07468361 79.94777013 -55 78 C-56.12277344 77.45214844 -57.24554688 76.90429688 -58.40234375 76.33984375 C-69.48605123 70.65692464 -83.98103369 62.52844946 -91 52 C-91.77847398 47.91301162 -90.91607318 45.38028493 -88.8125 41.9375 C-73.30686418 20.43201442 -48.39576553 5.37646094 -22.48095703 0.37060547 C-15.00913325 -0.74553589 -7.51419723 -0.48202383 0 0 Z " fill="#EC4A99" transform="translate(358,284)"/>
<path d="M0 0 C22.24463701 4.33845223 43.62768183 16.1614749 57.08935547 34.65380859 C65.49949527 47.79665065 74.88309999 66.39623452 72.83154297 82.55224609 C69.76337661 88.00676407 65.52174054 92.1279535 61.08154297 96.48974609 C60.40349609 97.16714844 59.72544922 97.84455078 59.02685547 98.54248047 C54.45459029 103.07562931 49.70641577 107.34900143 44.83154297 111.55224609 C43.63078125 112.63119141 43.63078125 112.63119141 42.40576172 113.73193359 C41.78314453 114.29138672 41.16052734 114.85083984 40.51904297 115.42724609 C39.88353516 116.00216797 39.24802734 116.57708984 38.59326172 117.16943359 C35.37624187 119.69454452 32.06007232 119.89850801 28.06201172 119.82568359 C14.73217412 118.19155289 2.9521173 106.59210738 -6.16845703 97.55224609 C-7.04759766 96.68599609 -7.92673828 95.81974609 -8.83251953 94.92724609 C-21.29751145 81.96056719 -28.7893358 65.87716337 -33.98095703 48.80224609 C-34.18817383 48.1295166 -34.39539063 47.45678711 -34.60888672 46.76367188 C-37.40166395 37.07843346 -37.37949845 27.16209639 -37.40869141 17.14526367 C-37.41855831 15.09368683 -37.4497615 13.04304915 -37.48095703 10.99169922 C-37.48611328 9.69296875 -37.49126953 8.39423828 -37.49658203 7.05615234 C-37.50592773 5.87867432 -37.51527344 4.70119629 -37.52490234 3.48803711 C-37.16845703 0.55224609 -37.16845703 0.55224609 -35.80712891 -1.3293457 C-28.1172622 -6.57774847 -8.6775531 -1.44553968 0 0 Z " fill="#EC4A99" transform="translate(416.16845703125,84.44775390625)"/>
<path d="M0 0 C1.72329549 0.01508674 3.44660387 0.02876803 5.16992188 0.04101562 C9.34277345 0.07367627 13.51498952 0.12523326 17.6875 0.1875 C24.23599242 13.28448483 17.54286346 38.29479948 13.3671875 51.59375 C4.12170234 78.70137059 -15.22064311 101.92147611 -40.75 115.125 C-51.76686985 120.26028288 -51.76686985 120.26028288 -58.3125 118.1875 C-63.30661712 114.48218729 -67.52934803 110.12631013 -71.57421875 105.42578125 C-76.22963708 100.04827487 -81.33881885 95.14596012 -86.43554688 90.19140625 C-87.16451172 89.47339844 -87.89347656 88.75539063 -88.64453125 88.015625 C-89.30171143 87.3752832 -89.9588916 86.73494141 -90.63598633 86.07519531 C-93.80351224 82.50867276 -94.70537216 79.5724907 -94.5625 74.77734375 C-92.39904283 52.36527961 -81.81213522 34.4929425 -64.625 20.0625 C-45.18539436 5.16682695 -24.17276272 -0.3718167 0 0 Z " fill="#EC4999" transform="translate(813.3125,93.8125)"/>
</svg>
