<?xml version="1.0" encoding="UTF-8"?>
<svg id="Layer_2" data-name="Layer 2" xmlns="http://www.w3.org/2000/svg" viewBox="0 0 145.9 199.94">
  <defs>
    <style>
      .cls-1 {
        fill: #e26e9b;
      }

      .cls-1, .cls-2, .cls-3, .cls-4, .cls-5, .cls-6 {
        stroke-width: 0px;
      }

      .cls-2 {
        fill: #fefefe;
      }

      .cls-3 {
        fill: #ec689d;
      }

      .cls-4 {
        fill: #fefdfe;
      }

      .cls-5 {
        fill: #fdfdfe;
      }

      .cls-6 {
        fill: #fcd0eb;
      }
    </style>
  </defs>
  <g id="Layer_1-2" data-name="Layer 1">
    <g>
      <path class="cls-3" d="M145.22,148.03c-3.78-21.6-15.97-38.33-30.63-53.5,7.24-13.07,13.75-26.05,11.55-41.01C121.87,24.6,105.59,6.35,76.67,0h-19c-7.55.94-15.11,1.56-22.13,5.1C15.49,15.22,4.14,30.97,0,50.55v149.36h111.66c.83-.95,2.16-.12,3.06-.85.62-.07,1.24-.14,1.85-.22.34-.28.72-.51,1.11-.71,19.62-7.66,31.21-29.07,27.53-50.11Z"/>
      <path class="cls-6" d="M114.58,199.47s.07,0,.11,0c0-.14.02-.28.03-.41-1.02.28-2.04.57-3.06.85h.79c.61-.28,1.32-.44,2.13-.44Z"/>
      <path class="cls-6" d="M116.57,198.85c.37-.24.74-.48,1.11-.71-.37.24-.74.47-1.11.71Z"/>
      <path class="cls-4" d="M64.53,187.86H12.53c0-7.51-.06-14.6,0-21.69.35-36.58-.88-73.27,1.66-109.69,1.72-24.65,24.19-41.3,49.12-41.62,25.1-.32,43.15,12.73,47.84,35.07,2.97,14.15-1.67,26.89-8.49,39.04-5.26,11.73-19.25,18.68-31.76,15.51-14.6-3.7-23.86-13.89-31.12-26.32-1.64-2.8-.67-5.43.98-7.95,3.86-5.91,8.6-11.02,13.96-15.55,5.97-5.05,12.42-9.53,17.92-15.13,1.55-1.58,3.61-3.17,5.74-1.59,5.32,3.94,11.48,6.84,15.64,12.26,1.23,1.6,2.06,3.41,2.87,5.83.51-4.56-1.8-7.23-4.52-9.62-5.11-4.49-11.49-7.35-15.88-13.46-4.08,3.75-6.79,7.74-10.48,10.79-8.71,7.18-18,13.8-24.68,23.16-7.77,10.88-11.65,23.01-12.23,36.35-1.3,29.74,11.95,53.6,30.02,75.63,2.21,2.69,5.64,4.79,5.4,9Z"/>
      <path class="cls-2" d="M103.62,103.14c18.38,17.13,31.25,36.63,27.12,63.36-1.05,6.76-5.36,11.63-10.16,16.11-.95,1.17-2.13,1.99-3.42,2.51-2.48-1.56-2.72-3.94-3.06-6.22-1.49-10.09-5.03-19.35-11.36-27.38-2.8-3.56-3.24-6.9-1.3-11.04,2.87-6.12,3.34-12.49.41-18.83-3.99-8.66-13.99-10.9-21.27-4.71-5.84,4.97-9.54,11.03-9.45,18.98.03,2.58-.2,5.41-3.01,6.31-8.36,2.66-16.79,5.12-24.64,8.32-13.26-13.55-19.13-58.08-6.35-70.77,2.62.43,3.7,2.67,5.01,4.53,3.57,5.07,7.7,9.68,12.45,13.61,11.97,9.89,25.03,10.81,38.72,3.92,3.9-1.96,7.25-2.18,10.31,1.3Z"/>
      <path class="cls-1" d="M103.62,103.14c-1.48-.73-2.96-1.45-4.78-2.35-27.87,16.5-46.15,2.47-61.72-20.84-10.31,24.63-5.13,47.1,5.73,69.77,8.39-4.48,17.1-6.99,25.86-8.79,4.76-22.75,13.38-32.39,25.45-28.71,11.08,3.38,13.63,16.2,6.62,34.27,9.66,10.54,14.41,23.44,15.78,38.07,1.69-.82,2.86-1.39,4.02-1.95-1.04,4.7-5.89,1.98-8.19,4.21-1.91-1.74-1.86-4.15-2.19-6.43-1.23-8.31-3.61-16.21-8.5-23.17-1.13-1.62-2.18-3.37-4.17-4.11-2.01-.14-3.41,1.23-5.04,1.97-8.08,3.65-14.48,2.61-20.09-4.21-2.82-3.43-5.74-4.14-9.57-2.86-4.99,1.66-10.23,2.79-14.28,6.1-.38,2.79,1.13,4.49,2.26,6.27,5.1,8,11.06,15.36,17.33,22.46,1.28,1.44,3.12,2.63,2.71,5.01-2.1,0-4.21,0-6.31,0-16.69-19.69-31.82-40.28-35.95-66.67-4.54-29.02,3.81-53.18,27.6-71.36,7.38-5.64,14.84-11.29,20.2-21.05,4.21,13.22,25.43,13.01,20.93,31.33-1.77-12.38-13.57-15.1-20.99-22.51-11.51,13.4-28.88,20.56-36.39,37.43,12.04,25.42,42.09,42.38,62.74,13.93-1.25,3.18-2.5,6.36-3.45,8.77,1.58,1.94,2.99,3.67,4.4,5.4Z"/>
      <path class="cls-5" d="M70.83,187.85c-9.58-10.39-18.83-21.03-25.51-34.06,7.67-4.82,15.8-7.32,24.71-8.58,6.95,12.96,16.47,13.31,27.64,4.92,10.09,10.29,13.73,22.95,14.71,36.69-13.8,2.53-27.7.63-41.55,1.03Z"/>
      <path class="cls-5" d="M102,131.33c-1.32,10.22-5,19.54-17.05,20.1-9.04.42-12.6-6.76-12.17-14.96.56-10.62,4.66-19.75,16.76-20.38,9.38-.49,11.76,6.94,12.46,15.24Z"/>
      <path class="cls-3" d="M112.18,199.94c3.22,0,3.22-5,0-5s-3.22,5,0,5h0Z"/>
      <path class="cls-3" d="M112.99,199.79h.02c.34.01.67-.06.96-.22.31-.1.58-.27.8-.52.24-.23.42-.49.52-.8.16-.3.23-.62.22-.96l-.09-.66c-.12-.42-.33-.79-.64-1.1l-.51-.39c-.39-.23-.81-.34-1.26-.34h-.02c-.34-.01-.67.06-.96.22-.31.1-.58.27-.8.52-.24.23-.42.49-.52.8-.16.3-.23.62-.22.96l.09.66c.12.42.33.79.64,1.1l.51.39c.39.23.81.34,1.26.34h0Z"/>
      <path class="cls-3" d="M113.6,199.7h.11c.34.01.67-.06.96-.22.31-.1.58-.27.8-.52.24-.23.42-.49.52-.8.16-.3.23-.62.22-.96l-.09-.66c-.12-.42-.33-.79-.64-1.1l-.51-.39c-.39-.23-.81-.34-1.26-.34h-.11c-.34-.01-.67.06-.96.22-.31.1-.58.27-.8.52-.24.23-.42.49-.52.8-.16.3-.23.62-.22.96l.09.66c.12.42.33.79.64,1.1l.51.39c.39.23.81.34,1.26.34h0Z"/>
      <path class="cls-3" d="M114.52,199.67h.09c.34.01.67-.06.96-.22.31-.1.58-.27.8-.52.24-.23.42-.49.52-.8.16-.3.23-.62.22-.96l-.09-.66c-.12-.42-.33-.79-.64-1.1l-.51-.39c-.39-.23-.81-.34-1.26-.34h-.09c-.34-.01-.67.06-.96.22-.31.1-.58.27-.8.52-.24.23-.42.49-.52.8-.16.3-.23.62-.22.96l.09.66c.12.42.33.79.64,1.1l.51.39c.39.23.81.34,1.26.34h0Z"/>
      <path class="cls-3" d="M115.95,198.93c3.22,0,3.22-5,0-5s-3.22,5,0,5h0Z"/>
      <path class="cls-3" d="M111.82,199.73c.79.03,1.6-.07,2.37-.24s1.51-.47,2.22-.82c.29-.16.53-.37.7-.64.22-.24.37-.52.45-.85.1-.33.12-.66.04-1-.02-.33-.11-.64-.3-.93-.34-.53-.86-1-1.49-1.15l-.66-.09c-.45,0-.87.12-1.26.34-.13.06-.25.12-.38.18l.6-.25c-.56.23-1.14.39-1.74.48l.66-.09c-.4.05-.8.07-1.2.06-.34-.01-.67.06-.96.22-.31.1-.58.27-.8.52-.24.23-.42.49-.52.8-.16.3-.23.62-.22.96.03.65.24,1.32.73,1.77s1.08.71,1.77.73h0Z"/>
    </g>
  </g>
</svg>