<?xml version="1.0" encoding="UTF-8"?>
<svg id="Layer_2" data-name="Layer 2" xmlns="http://www.w3.org/2000/svg" viewBox="0 0 151.83 143.05">
  <defs>
    <style>
      .cls-1 {
        fill: #57c0bc;
      }

      .cls-1, .cls-2, .cls-3 {
        fill-rule: evenodd;
        stroke-width: 0px;
      }

      .cls-2 {
        fill: #00938e;
      }

      .cls-3 {
        fill: #f1828b;
      }
    </style>
  </defs>
  <g id="Layer_1-2" data-name="Layer 1">
    <g>
      <path class="cls-1" d="M67.22,131.62h0v9.53s0,.86,0,.86v1.05s8.91,0,8.91,0v-42.89s-.16,0-.16,0c-12.11,0-22.15-8.84-24.03-20.42h-10.47c1.62,14.38,12.03,26.1,25.73,29.67v8.22h.02v13.99Z"/>
      <path class="cls-2" d="M75.97,51.45c13.45,0,24.35,10.9,24.35,24.35,0,11.65-8.19,21.39-19.12,23.79v10.55c16.7-2.52,29.5-16.93,29.5-34.33,0-19.18-15.55-34.73-34.73-34.73s-33.98,14.82-34.7,33.37h10.39c.7-12.82,11.32-22.99,24.31-22.99"/>
      <path class="cls-3" d="M83.37,31.23h-12.76c-6-16.45.92-24.26,7.62-31.23,10.94,9.35,13.36,21.56,5.14,31.23"/>
      <path class="cls-3" d="M51.01,38.9l-9.44,8.58c-15.5-8.13-15.65-18.56-15.38-28.23,14.39-.44,24.39,6.96,24.81,19.65"/>
      <path class="cls-3" d="M30.75,69.2l.96,12.72c-15.95,7.22-24.26.92-31.72-5.24,8.5-11.61,20.49-14.95,30.75-7.48"/>
      <path class="cls-3" d="M37.91,98.71l8.48,9.53c-8.3,15.41-18.73,15.44-28.4,15.07-.29-14.39,7.23-24.31,19.92-24.6"/>
      <path class="cls-3" d="M103.57,40.21l8.96,9.08c15.92-7.29,16.62-17.7,16.87-27.37-14.34-1.21-24.73,5.64-25.83,18.29"/>
      <path class="cls-3" d="M120.64,69.86l-.08,12.76c16.41,6.11,24.27-.76,31.28-7.42-9.28-11-21.47-13.5-31.2-5.34"/>
      <path class="cls-3" d="M113.6,100.56l-8.48,9.53c8.3,15.41,18.73,15.44,28.4,15.07.29-14.39-7.23-24.31-19.92-24.6"/>
      <path class="cls-1" d="M55.62,126.93c.21-.45.73-.55,1.39-.55h30.6c3.65,0,6.79,6.93,7.94,11.22-1.85-1.99-4.45-5.19-7.31-5.19h-31.25c-.52,0-.95.03-1.37.48v-5.96Z"/>
    </g>
  </g>
</svg>